<svg xmlns="http://www.w3.org/2000/svg" xmlns:xlink="http://www.w3.org/1999/xlink" version="1.1" x="0px" y="0px" viewBox="0 0 90 112.5" enable-background="new 0 0 90 90" xml:space="preserve"><path fill="#000000" d="M55.145,73.943c-0.325,0-0.655-0.095-0.944-0.293c-0.762-0.522-0.955-1.563-0.433-2.325  c1.052-1.532,2.088-4.402,2.472-6.546c-0.361,0.109-0.718,0.222-1.01,0.312c-2.593,0.81-3.379,1.056-4.179,0.108  c-0.435-0.513-0.519-1.269-0.216-1.868c1.566-3.104,2.095-8.217,1.153-11.164c-0.281-0.88,0.204-1.82,1.084-2.102  c0.881-0.28,1.821,0.205,2.102,1.084c0.911,2.853,0.796,6.979-0.161,10.506c2.318-0.715,3.121-0.895,3.919-0.368  c0.419,0.275,0.717,0.763,0.77,1.261c0.306,2.9-1.487,8.208-3.176,10.669C56.201,73.689,55.678,73.943,55.145,73.943z"/><path fill="#000000" d="M51.938,85.219H25.811c-8.611,0-12.429-4.854-13.13-9.397c-0.758-4.907,1.987-9.657,6.385-11.048  c1.173-0.369,2.426,0.279,2.798,1.454c0.371,1.174-0.279,2.427-1.454,2.798c-2.318,0.733-3.747,3.362-3.321,6.116  c0.543,3.518,3.804,5.618,8.723,5.618h26.127c0.202,0,0.316-0.122,0.367-0.195c0.079-0.116,0.096-0.237,0.048-0.362  c-0.181-0.475-0.46-0.938-1.679-0.938h-3.091c-1.617,0-3.31-0.917-4.115-2.23c-0.64-1.043-0.699-2.247-0.163-3.305  c0.438-0.863,0.779-3.99-0.576-5.865c-0.332-0.458-1.339-1.846-4.706-1.337c-1.215,0.189-2.354-0.652-2.539-1.869  c-0.186-1.218,0.651-2.354,1.869-2.539c5-0.766,7.651,1.282,8.988,3.132c2.109,2.915,2.126,7.054,1.321,9.555h3.012  c2.831,0,4.906,1.351,5.844,3.805c0.569,1.488,0.367,3.164-0.54,4.482C55.062,84.424,53.551,85.219,51.938,85.219z"/><path fill="#000000" d="M66.789,85.219h-5.114c-1.231,0-2.229-0.998-2.229-2.229s0.998-2.229,2.229-2.229h5.114  c0.202,0,0.316-0.122,0.367-0.195c0.079-0.116,0.096-0.237,0.048-0.362c-0.181-0.475-0.46-0.938-1.678-0.938h-0.239  c-2.069-0.03-3.504-0.626-4.417-1.821c-1.577-2.064-0.847-4.913,0.079-8.52c1.137-4.429,2.693-10.493,0.577-17.111  c-0.375-1.173,0.272-2.428,1.445-2.803c1.167-0.371,2.427,0.271,2.803,1.445c2.506,7.841,0.693,14.903-0.506,19.577  c-0.429,1.67-1.008,3.927-0.85,4.663c0.122,0.04,0.393,0.104,0.901,0.11h0.206c2.83,0,4.905,1.351,5.843,3.805  c0.569,1.488,0.367,3.164-0.54,4.482C69.913,84.424,68.402,85.219,66.789,85.219z"/><path fill="#000000" d="M65.185,18.81c-7.065-6.006-19.282-2.417-23.299-1.236c-2.928,0.86-5.597,0.995-7.546,1.094  c-2.09,0.106-3.352,0.17-4.277,1.116c-1.547,1.578-2.155,4.189-1.629,6.983c0.553,2.937,2.245,5.304,4.527,6.333l0.294,0.133  c2.909,1.31,9.722,4.377,10.544,7.729c0.258,1.053-1.852,3.047-4.084,5.158c-5.437,5.141-13.653,12.909-14.492,28.682  c-0.065,1.229,0.879,2.279,2.108,2.345c0.04,0.002,0.08,0.003,0.12,0.003c1.177,0,2.161-0.922,2.225-2.111  c0.744-13.993,7.887-20.747,13.103-25.678c3.342-3.16,6.228-5.889,5.351-9.461c-1.34-5.463-8.953-8.891-13.044-10.732l-0.291-0.131  c-0.922-0.416-1.665-1.563-1.958-3.004c0.344,0.242,0.761,0.388,1.214,0.388c1.166,0,2.112-0.946,2.112-2.112  c0-0.471-0.159-0.901-0.419-1.252c1.974-0.121,4.567-0.371,7.401-1.204c9.369-2.752,15.633-2.636,19.152,0.356  c3.129,2.66,4.232,7.875,3.279,15.5c-0.332,2.652-1.944,4.644-3.186,4.771c-1.189,0.125-3.266-1.634-5.104-6.997  c-0.399-1.165-1.666-1.786-2.832-1.387c-1.165,0.399-1.786,1.668-1.387,2.832c3.011,8.78,6.988,10.271,9.781,9.987  c3.994-0.413,6.665-4.767,7.15-8.654C71.15,29.05,69.531,22.506,65.185,18.81z"/><path fill="#000000" d="M69.49,17.843c-0.396,0-0.794-0.14-1.113-0.425c-0.688-0.615-0.748-1.673-0.133-2.361l7.104-7.95  c0.614-0.688,1.671-0.749,2.361-0.133c0.688,0.615,0.748,1.673,0.133,2.361l-7.104,7.95C70.408,17.654,69.95,17.843,69.49,17.843z"/><path fill="#000000" d="M51.67,28.451c-0.463,0-0.924-0.19-1.254-0.565c-0.633-0.715-1.091-0.706-1.714-0.445  c-0.854,0.359-1.832-0.045-2.188-0.896c-0.357-0.852,0.044-1.831,0.896-2.188c2.044-0.859,4.005-0.394,5.513,1.316  c0.611,0.691,0.546,1.748-0.146,2.359C52.458,28.313,52.062,28.451,51.67,28.451z"/><path fill="#000000" d="M73.054,22.728c-0.745,0-1.424-0.501-1.618-1.256c-0.23-0.895,0.308-1.806,1.202-2.036l6.476-1.668  c0.895-0.231,1.806,0.308,2.036,1.202s-0.308,1.806-1.202,2.036l-6.476,1.668C73.332,22.71,73.191,22.728,73.054,22.728z"/><path fill="#000000" d="M64.666,14.374c-0.05,0-0.1-0.002-0.15-0.006c-0.92-0.082-1.599-0.895-1.518-1.814l0.643-7.211  c0.083-0.92,0.897-1.595,1.814-1.518c0.92,0.082,1.599,0.895,1.518,1.814l-0.643,7.211C66.252,13.72,65.522,14.374,64.666,14.374z"/><text x="0" y="105" fill="#000000" font-size="5px" font-weight="bold" font-family="'Helvetica Neue', Helvetica, Arial-Unicode, Arial, Sans-serif">Created by Callum Taylor</text><text x="0" y="110" fill="#000000" font-size="5px" font-weight="bold" font-family="'Helvetica Neue', Helvetica, Arial-Unicode, Arial, Sans-serif">from the Noun Project</text></svg>